<svg xmlns="http://www.w3.org/2000/svg" xmlns:xlink="http://www.w3.org/1999/xlink" width="50" zoomAndPan="magnify" viewBox="0 0 37.5 37.499999" height="50" preserveAspectRatio="xMidYMid meet" version="1.0"><defs><clipPath id="52cd359bf2"><path d="M 1.066406 10.625 L 35.851562 10.625 L 35.851562 26.167969 L 1.066406 26.167969 Z M 1.066406 10.625 " clip-rule="nonzero"/></clipPath></defs><g clip-path="url(#52cd359bf2)"><path fill="#474343" d="M 1.148438 18.503906 C 1.148438 14.273438 4.574219 10.847656 8.800781 10.847656 L 28.195312 10.847656 C 32.425781 10.847656 35.851562 14.273438 35.851562 18.503906 C 35.851562 22.730469 32.425781 26.15625 28.195312 26.15625 L 8.800781 26.15625 C 4.574219 26.15625 1.148438 22.730469 1.148438 18.503906 Z M 1.148438 18.503906 " fill-opacity="1" fill-rule="nonzero"/></g><path fill="#a6a6a6" d="M 22.039062 18.503906 C 22.039062 15.15625 24.75 12.445312 28.09375 12.445312 C 31.4375 12.445312 34.152344 15.15625 34.152344 18.503906 C 34.152344 21.847656 31.4375 24.558594 28.09375 24.558594 C 24.75 24.558594 22.039062 21.847656 22.039062 18.503906 Z M 22.039062 18.503906 " fill-opacity="1" fill-rule="nonzero"/></svg>