<svg xmlns="http://www.w3.org/2000/svg" xmlns:xlink="http://www.w3.org/1999/xlink" width="50" zoomAndPan="magnify" viewBox="0 0 37.5 37.499999" height="50" preserveAspectRatio="xMidYMid meet" version="1.0"><defs><g/><clipPath id="9d20de62f7"><path d="M 6.363281 10.535156 L 30.703125 10.535156 L 30.703125 26.46875 L 6.363281 26.46875 Z M 6.363281 10.535156 " clip-rule="nonzero"/></clipPath><clipPath id="fa685eb03b"><path d="M 10.066406 10.535156 L 26.941406 10.535156 C 27.921875 10.535156 28.863281 10.925781 29.558594 11.621094 C 30.25 12.3125 30.640625 13.253906 30.640625 14.238281 L 30.640625 22.769531 C 30.640625 23.75 30.25 24.691406 29.558594 25.386719 C 28.863281 26.082031 27.921875 26.46875 26.941406 26.46875 L 10.066406 26.46875 C 9.085938 26.46875 8.144531 26.082031 7.449219 25.386719 C 6.753906 24.691406 6.363281 23.75 6.363281 22.769531 L 6.363281 14.238281 C 6.363281 13.253906 6.753906 12.3125 7.449219 11.621094 C 8.144531 10.925781 9.085938 10.535156 10.066406 10.535156 Z M 10.066406 10.535156 " clip-rule="nonzero"/></clipPath><clipPath id="a65a2f1dcf"><path d="M 6.363281 10.535156 L 30.789062 10.535156 L 30.789062 26.820312 L 6.363281 26.820312 Z M 6.363281 10.535156 " clip-rule="nonzero"/></clipPath></defs><g clip-path="url(#9d20de62f7)"><g clip-path="url(#fa685eb03b)"><path fill="#ffffff" d="M 6.363281 10.535156 L 30.640625 10.535156 L 30.640625 26.46875 L 6.363281 26.46875 Z M 6.363281 10.535156 " fill-opacity="1" fill-rule="nonzero"/></g></g><g fill="#ffffff" fill-opacity="1"><g transform="translate(17.929686, 17.937559)"><g><path d="M 0.28125 0.015625 C 0.207031 0.015625 0.148438 0 0.109375 -0.03125 C 0.078125 -0.0625 0.0507812 -0.109375 0.03125 -0.171875 L 0.09375 -0.1875 L 0.109375 -0.1875 C 0.117188 -0.144531 0.132812 -0.113281 0.15625 -0.09375 C 0.1875 -0.0703125 0.226562 -0.0625 0.28125 -0.0625 C 0.332031 -0.0625 0.367188 -0.0703125 0.390625 -0.09375 C 0.421875 -0.125 0.4375 -0.160156 0.4375 -0.203125 C 0.4375 -0.242188 0.421875 -0.273438 0.390625 -0.296875 C 0.367188 -0.328125 0.328125 -0.34375 0.265625 -0.34375 L 0.1875 -0.34375 L 0.1875 -0.40625 L 0.265625 -0.40625 C 0.304688 -0.40625 0.335938 -0.414062 0.359375 -0.4375 C 0.390625 -0.457031 0.40625 -0.484375 0.40625 -0.515625 C 0.40625 -0.554688 0.394531 -0.585938 0.375 -0.609375 C 0.351562 -0.628906 0.320312 -0.640625 0.28125 -0.640625 C 0.207031 -0.640625 0.15625 -0.609375 0.125 -0.546875 L 0.109375 -0.546875 L 0.0625 -0.59375 C 0.0820312 -0.625 0.109375 -0.648438 0.140625 -0.671875 C 0.179688 -0.691406 0.226562 -0.703125 0.28125 -0.703125 C 0.320312 -0.703125 0.359375 -0.695312 0.390625 -0.6875 C 0.421875 -0.675781 0.441406 -0.65625 0.453125 -0.625 C 0.472656 -0.601562 0.484375 -0.570312 0.484375 -0.53125 C 0.484375 -0.5 0.472656 -0.46875 0.453125 -0.4375 C 0.441406 -0.414062 0.414062 -0.398438 0.375 -0.390625 L 0.375 -0.375 C 0.425781 -0.363281 0.460938 -0.34375 0.484375 -0.3125 C 0.503906 -0.28125 0.515625 -0.242188 0.515625 -0.203125 C 0.515625 -0.128906 0.492188 -0.0703125 0.453125 -0.03125 C 0.421875 0 0.363281 0.015625 0.28125 0.015625 Z M 0.28125 0.015625 "/></g></g></g><g fill="#ffffff" fill-opacity="1"><g transform="translate(18.499896, 17.937559)"><g><path d="M 0.28125 0.015625 C 0.207031 0.015625 0.148438 0 0.109375 -0.03125 C 0.078125 -0.0625 0.0507812 -0.109375 0.03125 -0.171875 L 0.09375 -0.1875 L 0.109375 -0.1875 C 0.117188 -0.144531 0.132812 -0.113281 0.15625 -0.09375 C 0.1875 -0.0703125 0.226562 -0.0625 0.28125 -0.0625 C 0.332031 -0.0625 0.367188 -0.0703125 0.390625 -0.09375 C 0.421875 -0.125 0.4375 -0.160156 0.4375 -0.203125 C 0.4375 -0.242188 0.421875 -0.273438 0.390625 -0.296875 C 0.367188 -0.328125 0.328125 -0.34375 0.265625 -0.34375 L 0.1875 -0.34375 L 0.1875 -0.40625 L 0.265625 -0.40625 C 0.304688 -0.40625 0.335938 -0.414062 0.359375 -0.4375 C 0.390625 -0.457031 0.40625 -0.484375 0.40625 -0.515625 C 0.40625 -0.554688 0.394531 -0.585938 0.375 -0.609375 C 0.351562 -0.628906 0.320312 -0.640625 0.28125 -0.640625 C 0.207031 -0.640625 0.15625 -0.609375 0.125 -0.546875 L 0.109375 -0.546875 L 0.0625 -0.59375 C 0.0820312 -0.625 0.109375 -0.648438 0.140625 -0.671875 C 0.179688 -0.691406 0.226562 -0.703125 0.28125 -0.703125 C 0.320312 -0.703125 0.359375 -0.695312 0.390625 -0.6875 C 0.421875 -0.675781 0.441406 -0.65625 0.453125 -0.625 C 0.472656 -0.601562 0.484375 -0.570312 0.484375 -0.53125 C 0.484375 -0.5 0.472656 -0.46875 0.453125 -0.4375 C 0.441406 -0.414062 0.414062 -0.398438 0.375 -0.390625 L 0.375 -0.375 C 0.425781 -0.363281 0.460938 -0.34375 0.484375 -0.3125 C 0.503906 -0.28125 0.515625 -0.242188 0.515625 -0.203125 C 0.515625 -0.128906 0.492188 -0.0703125 0.453125 -0.03125 C 0.421875 0 0.363281 0.015625 0.28125 0.015625 Z M 0.28125 0.015625 "/></g></g></g><g clip-path="url(#a65a2f1dcf)"><path fill="#000000" d="M 29.390625 10.574219 L 7.742188 10.574219 C 7.558594 10.574219 7.382812 10.609375 7.214844 10.683594 C 7.042969 10.753906 6.894531 10.855469 6.761719 10.988281 C 6.632812 11.121094 6.53125 11.273438 6.460938 11.445312 C 6.390625 11.617188 6.355469 11.796875 6.355469 11.984375 L 6.355469 25.390625 C 6.355469 25.578125 6.390625 25.757812 6.460938 25.929688 C 6.53125 26.105469 6.632812 26.257812 6.761719 26.386719 C 6.894531 26.519531 7.042969 26.621094 7.214844 26.695312 C 7.382812 26.765625 7.558594 26.800781 7.742188 26.800781 L 29.390625 26.800781 C 29.574219 26.800781 29.75 26.765625 29.921875 26.695312 C 30.089844 26.621094 30.242188 26.519531 30.371094 26.386719 C 30.5 26.257812 30.601562 26.105469 30.671875 25.929688 C 30.742188 25.757812 30.777344 25.578125 30.777344 25.390625 L 30.777344 11.984375 C 30.777344 11.796875 30.742188 11.617188 30.671875 11.445312 C 30.601562 11.273438 30.5 11.121094 30.371094 10.988281 C 30.242188 10.855469 30.089844 10.753906 29.921875 10.683594 C 29.75 10.609375 29.574219 10.574219 29.390625 10.574219 Z M 22.40625 18.6875 L 30.027344 11.785156 C 30.046875 11.847656 30.058594 11.914062 30.058594 11.984375 L 30.058594 25.390625 C 30.058594 25.460938 30.046875 25.527344 30.027344 25.589844 Z M 29.390625 11.304688 C 29.414062 11.304688 29.441406 11.308594 29.464844 11.3125 L 19.007812 20.785156 C 18.882812 20.898438 18.734375 20.957031 18.566406 20.957031 C 18.394531 20.957031 18.246094 20.898438 18.121094 20.785156 L 7.667969 11.3125 C 7.691406 11.308594 7.71875 11.304688 7.742188 11.304688 Z M 7.109375 25.589844 C 7.085938 25.527344 7.074219 25.460938 7.074219 25.390625 L 7.074219 11.984375 C 7.074219 11.914062 7.085938 11.847656 7.109375 11.785156 L 14.730469 18.6875 Z M 7.742188 26.070312 C 7.71875 26.070312 7.691406 26.066406 7.667969 26.0625 L 15.269531 19.179688 L 17.644531 21.328125 C 17.769531 21.445312 17.914062 21.53125 18.074219 21.59375 C 18.230469 21.65625 18.398438 21.6875 18.566406 21.6875 C 18.738281 21.6875 18.902344 21.65625 19.0625 21.59375 C 19.21875 21.53125 19.363281 21.445312 19.488281 21.328125 L 21.863281 19.175781 L 29.464844 26.0625 C 29.441406 26.066406 29.414062 26.070312 29.390625 26.070312 Z M 7.742188 26.070312 " fill-opacity="1" fill-rule="nonzero"/></g></svg>