<svg xmlns="http://www.w3.org/2000/svg" xmlns:xlink="http://www.w3.org/1999/xlink" width="50" zoomAndPan="magnify" viewBox="0 0 37.5 37.499999" height="50" preserveAspectRatio="xMidYMid meet" version="1.0"><defs><clipPath id="d65dcb5cce"><path d="M 1.148438 10.835938 L 35.933594 10.835938 L 35.933594 26.378906 L 1.148438 26.378906 Z M 1.148438 10.835938 " clip-rule="nonzero"/></clipPath></defs><g clip-path="url(#d65dcb5cce)"><path fill="#f4f4f4" d="M 35.851562 18.5 C 35.851562 22.730469 32.425781 26.15625 28.195312 26.15625 L 8.800781 26.15625 C 4.574219 26.15625 1.148438 22.730469 1.148438 18.5 C 1.148438 14.273438 4.574219 10.847656 8.800781 10.847656 L 28.195312 10.847656 C 32.425781 10.847656 35.851562 14.273438 35.851562 18.5 Z M 35.851562 18.5 " fill-opacity="1" fill-rule="nonzero"/></g><path fill="#545454" d="M 14.960938 18.5 C 14.960938 21.847656 12.25 24.558594 8.902344 24.558594 C 5.558594 24.558594 2.847656 21.847656 2.847656 18.5 C 2.847656 15.15625 5.558594 12.445312 8.902344 12.445312 C 12.25 12.445312 14.960938 15.15625 14.960938 18.5 Z M 14.960938 18.5 " fill-opacity="1" fill-rule="nonzero"/></svg>