<svg xmlns="http://www.w3.org/2000/svg" xmlns:xlink="http://www.w3.org/1999/xlink" width="50" zoomAndPan="magnify" viewBox="0 0 37.5 37.499999" height="50" preserveAspectRatio="xMidYMid meet" version="1.0"><defs><clipPath id="306a3074c2"><path d="M 0 10.328125 L 37.007812 10.328125 L 37.007812 26.609375 L 0 26.609375 Z M 0 10.328125 " clip-rule="nonzero"/></clipPath><clipPath id="e5357874bf"><path d="M 1.433594 10.835938 L 36.21875 10.835938 L 36.21875 26.378906 L 1.433594 26.378906 Z M 1.433594 10.835938 " clip-rule="nonzero"/></clipPath></defs><g clip-path="url(#306a3074c2)"><path fill="#000000" d="M 37.007812 18.5 C 37.007812 23.007812 33.351562 26.660156 28.84375 26.660156 L 8.164062 26.660156 C 3.65625 26.660156 0 23.007812 0 18.5 C 0 13.988281 3.65625 10.335938 8.164062 10.335938 L 28.84375 10.335938 C 33.351562 10.335938 37.007812 13.988281 37.007812 18.5 Z M 37.007812 18.5 " fill-opacity="1" fill-rule="nonzero"/></g><path fill="#000000" d="M 14.730469 18.5 C 14.730469 22.066406 11.839844 24.957031 8.273438 24.957031 C 4.707031 24.957031 1.8125 22.066406 1.8125 18.5 C 1.8125 14.929688 4.707031 12.039062 8.273438 12.039062 C 11.839844 12.039062 14.730469 14.929688 14.730469 18.5 Z M 14.730469 18.5 " fill-opacity="1" fill-rule="nonzero"/><g clip-path="url(#e5357874bf)"><path fill="#f4f4f4" d="M 36.136719 18.5 C 36.136719 22.730469 32.710938 26.15625 28.484375 26.15625 L 9.089844 26.15625 C 4.859375 26.15625 1.433594 22.730469 1.433594 18.5 C 1.433594 14.273438 4.859375 10.847656 9.089844 10.847656 L 28.484375 10.847656 C 32.710938 10.847656 36.136719 14.273438 36.136719 18.5 Z M 36.136719 18.5 " fill-opacity="1" fill-rule="nonzero"/></g><path fill="#545454" d="M 15.246094 18.5 C 15.246094 21.847656 12.535156 24.558594 9.191406 24.558594 C 5.847656 24.558594 3.132812 21.847656 3.132812 18.5 C 3.132812 15.15625 5.847656 12.445312 9.191406 12.445312 C 12.535156 12.445312 15.246094 15.15625 15.246094 18.5 Z M 15.246094 18.5 " fill-opacity="1" fill-rule="nonzero"/></svg>