<svg xmlns="http://www.w3.org/2000/svg" xmlns:xlink="http://www.w3.org/1999/xlink" width="50" zoomAndPan="magnify" viewBox="0 0 37.5 37.499999" height="50" preserveAspectRatio="xMidYMid meet" version="1.0"><defs><clipPath id="2f2bd29d01"><path d="M 0 10.386719 L 37.007812 10.386719 L 37.007812 26.667969 L 0 26.667969 Z M 0 10.386719 " clip-rule="nonzero"/></clipPath><clipPath id="9abafeb88a"><path d="M 0.777344 10.625 L 35.566406 10.625 L 35.566406 26.167969 L 0.777344 26.167969 Z M 0.777344 10.625 " clip-rule="nonzero"/></clipPath></defs><g clip-path="url(#2f2bd29d01)"><path fill="#000000" d="M 0 18.5 C 0 13.992188 3.65625 10.335938 8.164062 10.335938 L 28.84375 10.335938 C 33.351562 10.335938 37.007812 13.992188 37.007812 18.5 C 37.007812 23.007812 33.351562 26.664062 28.84375 26.664062 L 8.164062 26.664062 C 3.65625 26.664062 0 23.007812 0 18.5 Z M 0 18.5 " fill-opacity="1" fill-rule="nonzero"/></g><path fill="#000000" d="M 22.277344 18.5 C 22.277344 14.933594 25.167969 12.039062 28.734375 12.039062 C 32.300781 12.039062 35.191406 14.933594 35.191406 18.5 C 35.191406 22.066406 32.300781 24.957031 28.734375 24.957031 C 25.167969 24.957031 22.277344 22.066406 22.277344 18.5 Z M 22.277344 18.5 " fill-opacity="1" fill-rule="nonzero"/><g clip-path="url(#9abafeb88a)"><path fill="#ffe169" d="M 0.859375 18.503906 C 0.859375 14.273438 4.289062 10.847656 8.515625 10.847656 L 27.910156 10.847656 C 32.136719 10.847656 35.566406 14.273438 35.566406 18.503906 C 35.566406 22.730469 32.136719 26.15625 27.910156 26.15625 L 8.515625 26.15625 C 4.289062 26.15625 0.859375 22.730469 0.859375 18.503906 Z M 0.859375 18.503906 " fill-opacity="1" fill-rule="nonzero"/></g><path fill="#a6a6a6" d="M 21.75 18.503906 C 21.75 15.15625 24.460938 12.445312 27.808594 12.445312 C 31.152344 12.445312 33.863281 15.15625 33.863281 18.503906 C 33.863281 21.847656 31.152344 24.558594 27.808594 24.558594 C 24.460938 24.558594 21.75 21.847656 21.75 18.503906 Z M 21.75 18.503906 " fill-opacity="1" fill-rule="nonzero"/></svg>