<svg xmlns="http://www.w3.org/2000/svg" xmlns:xlink="http://www.w3.org/1999/xlink" width="50" zoomAndPan="magnify" viewBox="0 0 37.5 37.499999" height="50" preserveAspectRatio="xMidYMid meet" version="1.0"><defs><clipPath id="ea3cf143cb"><path d="M 2.628906 2.554688 L 34.378906 2.554688 L 34.378906 34.554688 L 2.628906 34.554688 Z M 2.628906 2.554688 " clip-rule="nonzero"/></clipPath><clipPath id="2d536ea197"><path d="M 7.066406 2.554688 L 29.9375 2.554688 C 32.390625 2.554688 34.378906 4.542969 34.378906 6.996094 L 34.378906 30.011719 C 34.378906 32.464844 32.390625 34.453125 29.9375 34.453125 L 7.066406 34.453125 C 4.617188 34.453125 2.628906 32.464844 2.628906 30.011719 L 2.628906 6.996094 C 2.628906 4.542969 4.617188 2.554688 7.066406 2.554688 Z M 7.066406 2.554688 " clip-rule="nonzero"/></clipPath></defs><g clip-path="url(#ea3cf143cb)"><g clip-path="url(#2d536ea197)"><path fill="#ffffff" d="M 2.628906 2.554688 L 34.378906 2.554688 L 34.378906 34.429688 L 2.628906 34.429688 Z M 2.628906 2.554688 " fill-opacity="1" fill-rule="nonzero"/></g></g><path fill="#0844af" d="M 31.175781 1.871094 L 5.832031 1.871094 C 3.644531 1.871094 1.871094 3.644531 1.871094 5.832031 L 1.871094 31.175781 C 1.871094 33.359375 3.644531 35.132812 5.832031 35.132812 L 31.175781 35.132812 C 33.359375 35.132812 35.132812 33.359375 35.132812 31.175781 L 35.132812 5.832031 C 35.132812 3.644531 33.359375 1.871094 31.175781 1.871094 Z M 12.167969 14.542969 L 12.167969 29.589844 L 7.417969 29.589844 L 7.417969 14.542969 Z M 7.417969 10.164062 C 7.417969 9.054688 8.367188 8.207031 9.792969 8.207031 C 11.21875 8.207031 12.113281 9.054688 12.167969 10.164062 C 12.167969 11.273438 11.28125 12.167969 9.792969 12.167969 C 8.367188 12.167969 7.417969 11.273438 7.417969 10.164062 Z M 29.589844 29.589844 L 24.839844 29.589844 C 24.839844 29.589844 24.839844 22.257812 24.839844 21.671875 C 24.839844 20.085938 24.046875 18.503906 22.066406 18.472656 L 22.003906 18.472656 C 20.085938 18.472656 19.296875 20.101562 19.296875 21.671875 C 19.296875 22.390625 19.296875 29.589844 19.296875 29.589844 L 14.542969 29.589844 L 14.542969 14.542969 L 19.296875 14.542969 L 19.296875 16.570312 C 19.296875 16.570312 20.824219 14.542969 23.894531 14.542969 C 27.039062 14.542969 29.589844 16.707031 29.589844 21.085938 Z M 29.589844 29.589844 " fill-opacity="1" fill-rule="nonzero"/></svg>