<svg xmlns="http://www.w3.org/2000/svg" xmlns:xlink="http://www.w3.org/1999/xlink" width="50" zoomAndPan="magnify" viewBox="0 0 37.5 37.499999" height="50" preserveAspectRatio="xMidYMid meet" version="1.0"><defs><clipPath id="ec9ab39a54"><path d="M 6.640625 3.699219 L 30.199219 3.699219 L 30.199219 33.328125 L 6.640625 33.328125 Z M 6.640625 3.699219 " clip-rule="nonzero"/></clipPath><clipPath id="e8858d9d01"><path d="M 10.34375 3.699219 L 26.496094 3.699219 C 27.476562 3.699219 28.417969 4.089844 29.113281 4.785156 C 29.808594 5.480469 30.199219 6.417969 30.199219 7.402344 L 30.199219 29.605469 C 30.199219 30.585938 29.808594 31.527344 29.113281 32.222656 C 28.417969 32.917969 27.476562 33.304688 26.496094 33.304688 L 10.34375 33.304688 C 9.359375 33.304688 8.417969 32.917969 7.726562 32.222656 C 7.03125 31.527344 6.640625 30.585938 6.640625 29.605469 L 6.640625 7.402344 C 6.640625 6.417969 7.03125 5.480469 7.726562 4.785156 C 8.417969 4.089844 9.359375 3.699219 10.34375 3.699219 Z M 10.34375 3.699219 " clip-rule="nonzero"/></clipPath><clipPath id="b20b4d209c"><path d="M 6.640625 3.699219 L 31 3.699219 L 31 34 L 6.640625 34 Z M 6.640625 3.699219 " clip-rule="nonzero"/></clipPath></defs><g clip-path="url(#ec9ab39a54)"><g clip-path="url(#e8858d9d01)"><path fill="#ffffff" d="M 6.640625 3.699219 L 30.199219 3.699219 L 30.199219 33.328125 L 6.640625 33.328125 Z M 6.640625 3.699219 " fill-opacity="1" fill-rule="nonzero"/></g></g><g clip-path="url(#b20b4d209c)"><path fill="#000000" d="M 28.117188 3.648438 L 9.488281 3.648438 C 7.917969 3.648438 6.640625 4.917969 6.640625 6.476562 L 6.640625 31.164062 C 6.640625 32.726562 7.917969 33.996094 9.488281 33.996094 L 28.117188 33.996094 C 29.6875 33.996094 30.964844 32.726562 30.964844 31.164062 L 30.964844 6.476562 C 30.964844 4.917969 29.6875 3.648438 28.117188 3.648438 Z M 29.410156 31.164062 C 29.410156 31.875 28.832031 32.453125 28.117188 32.453125 L 9.488281 32.453125 C 8.773438 32.453125 8.191406 31.875 8.191406 31.164062 L 8.191406 6.476562 C 8.191406 5.769531 8.773438 5.191406 9.488281 5.191406 L 28.117188 5.191406 C 28.832031 5.191406 29.410156 5.769531 29.410156 6.476562 Z M 29.410156 31.164062 " fill-opacity="1" fill-rule="nonzero"/></g><path fill="#000000" d="M 15.550781 14.449219 C 16.3125 14.449219 17.039062 14.128906 17.59375 13.550781 C 17.890625 13.242188 17.878906 12.753906 17.566406 12.460938 C 17.257812 12.167969 16.765625 12.179688 16.46875 12.488281 C 16.210938 12.757812 15.882812 12.90625 15.550781 12.90625 C 14.753906 12.90625 14.109375 12.097656 14.109375 11.105469 C 14.109375 10.113281 14.753906 9.308594 15.550781 9.308594 C 15.976562 9.308594 16.285156 9.535156 16.46875 9.726562 C 16.765625 10.035156 17.257812 10.046875 17.566406 9.75 C 17.875 9.457031 17.886719 8.96875 17.59375 8.660156 C 17.035156 8.082031 16.3125 7.765625 15.550781 7.765625 C 13.898438 7.765625 12.554688 9.261719 12.554688 11.105469 C 12.554688 12.949219 13.898438 14.449219 15.550781 14.449219 Z M 15.550781 14.449219 " fill-opacity="1" fill-rule="nonzero"/><path fill="#000000" d="M 21.1875 13.964844 C 21.304688 14.257812 21.589844 14.449219 21.90625 14.449219 C 22.222656 14.449219 22.507812 14.257812 22.628906 13.964844 L 24.699219 8.820312 C 24.855469 8.425781 24.664062 7.976562 24.265625 7.820312 C 23.867188 7.664062 23.414062 7.851562 23.257812 8.25 L 21.90625 11.601562 L 20.558594 8.25 C 20.398438 7.851562 19.945312 7.664062 19.546875 7.820312 C 19.152344 7.976562 18.957031 8.425781 19.117188 8.820312 Z M 21.1875 13.964844 " fill-opacity="1" fill-rule="nonzero"/><path fill="#000000" d="M 26.046875 18.050781 L 11.554688 18.050781 C 11.128906 18.050781 10.78125 18.394531 10.78125 18.820312 C 10.78125 19.246094 11.128906 19.59375 11.554688 19.59375 L 26.046875 19.59375 C 26.476562 19.59375 26.824219 19.246094 26.824219 18.820312 C 26.824219 18.394531 26.476562 18.050781 26.046875 18.050781 Z M 26.046875 18.050781 " fill-opacity="1" fill-rule="nonzero"/><path fill="#000000" d="M 26.046875 23.195312 L 11.554688 23.195312 C 11.128906 23.195312 10.78125 23.539062 10.78125 23.964844 C 10.78125 24.390625 11.128906 24.738281 11.554688 24.738281 L 26.046875 24.738281 C 26.476562 24.738281 26.824219 24.390625 26.824219 23.964844 C 26.824219 23.539062 26.476562 23.195312 26.046875 23.195312 Z M 26.046875 23.195312 " fill-opacity="1" fill-rule="nonzero"/><path fill="#000000" d="M 18.800781 28.335938 L 11.554688 28.335938 C 11.128906 28.335938 10.78125 28.683594 10.78125 29.109375 C 10.78125 29.535156 11.128906 29.878906 11.554688 29.878906 L 18.800781 29.878906 C 19.230469 29.878906 19.578125 29.535156 19.578125 29.109375 C 19.578125 28.683594 19.230469 28.335938 18.800781 28.335938 Z M 18.800781 28.335938 " fill-opacity="1" fill-rule="nonzero"/></svg>